#!Matlab matrix to amc conversion
:FULLY-SPECIFIED
:DEGREES
196
root -2.432738 0.508955 77.394756 5.704972 5.007673 5.252441
lowerback -7.147692 -4.557703 -8.267830
upperback -1.552973 -5.473352 1.594421
thorax 3.280822 -2.824955 5.711259
lowerneck -22.914698 -1.211150 -11.429267
upperneck 29.267426 -0.700536 10.198726
head 13.865295 -0.157716 5.987404
rclavicle 0.000000 -0.000000
rhumerus -51.425210 3.761179 -80.585661
rradius 19.680757
rwrist -0.380634
rhand -28.856200 -18.800500
rfingers 7.125020
rthumb -2.212790 -48.768800
lclavicle 0.000000 -0.000000
lhumerus -5.453061 -18.708956 84.047142
lradius 46.786771
lwrist 15.800466
lhand -19.668800 -28.799300
lfingers 7.125020
lthumb 6.659510 1.076010
rfemur -39.937510 -1.644768 17.598448
rtibia 30.445218
rfoot -7.312717 2.767152
rtoes -20.766800
lfemur 24.638582 7.934932 -24.015155
ltibia 0.502668
lfoot -7.646253 -8.294916
ltoes -22.051700
197
root -2.476792 0.513645 77.890030 5.316300 4.677770 4.866179
lowerback -6.900260 -4.574236 -7.998198
upperback -1.641224 -5.544292 1.847616
thorax 3.051424 -2.850013 5.840865
lowerneck -22.987757 -0.981142 -11.406819
upperneck 29.348714 -0.316583 10.039157
head 13.860828 -0.009656 5.990300
rclavicle 0.000000 -0.000000
rhumerus -50.837741 0.390357 -76.941162
rradius 17.594685
rwrist 5.034368
rhand -28.856200 -18.800500
rfingers 7.125020
rthumb -2.212790 -48.768800
lclavicle 0.000000 -0.000000
lhumerus -7.734439 -18.527635 84.884316
lradius 48.386745
lwrist 17.225506
lhand -19.668800 -28.799300
lfingers 7.125020
lthumb 6.659510 1.076010
rfemur -38.569637 -3.442079 19.781774
rtibia 32.574495
rfoot -2.864216 4.906021
rtoes -20.766800
lfemur 26.637923 8.613293 -22.841273
ltibia 0.364821
lfoot -2.224590 -7.067378
ltoes -22.051700
198
root -2.525175 0.544988 78.389584 4.986642 4.397720 4.350008
lowerback -6.578518 -4.571666 -7.602617
upperback -1.748629 -5.608758 2.156018
thorax 2.752137 -2.867535 5.968081
lowerneck -23.005484 -0.770555 -11.426233
upperneck 29.303719 0.023988 9.977726
head 13.800045 0.129327 6.024985
rclavicle 0.000000 -0.000000
rhumerus -50.172472 -3.712968 -72.512667
rradius 15.715209
rwrist 11.151644
rhand -28.856200 -18.800500
rfingers 7.125020
rthumb -2.212790 -48.768800
lclavicle 0.000000 -0.000000
lhumerus -10.708409 -18.633718 86.087964
lradius 49.880379
lwrist 18.770863
lhand -19.668800 -28.799300
lfingers 7.125020
lthumb 6.659510 1.076010
rfemur -37.153610 -5.028980 21.872262
rtibia 34.980501
rfoot 0.980368 6.969558
rtoes -20.766800
lfemur 27.908310 9.184206 -21.525449
ltibia 1.292362
lfoot 4.868294 -4.259389
ltoes -22.051700
199
root -2.578700 0.606009 78.885926 4.778184 4.219330 3.673928
lowerback -6.182799 -4.550376 -7.046468
upperback -1.878037 -5.665252 2.530152
thorax 2.381480 -2.877436 6.082373
lowerneck -22.962734 -0.621678 -11.514775
upperneck 29.122758 0.253038 10.064824
head 13.686917 0.233597 6.104549
rclavicle 0.000000 -0.000000
rhumerus -49.515878 -8.287034 -67.600471
rradius 14.314712
rwrist 17.319230
rhand -28.856200 -18.800500
rfingers 7.125020
rthumb -2.212790 -48.768800
lclavicle 0.000000 -0.000000
lhumerus -14.188426 -18.923470 87.600226
lradius 51.050200
lwrist 20.182502
lhand -19.668800 -28.799300
lfingers 7.125020
lthumb 6.659510 1.076010
rfemur -35.881089 -6.171299 23.621876
rtibia 37.481364
rfoot 3.354531 8.805134
rtoes -20.766800
lfemur 27.744921 9.562154 -20.042755
ltibia 4.310716
lfoot 13.068795 0.451704
ltoes -22.051700
200
root -2.637763 0.696007 79.368898 4.722078 4.171986 2.776226
lowerback -5.760307 -4.476581 -6.250861
upperback -1.988382 -5.664374 2.941818
thorax 1.996321 -2.857755 6.107724
lowerneck -22.877457 -0.603744 -11.642360
upperneck 28.835306 0.254122 10.308818
head 13.551570 0.256759 6.208892
rclavicle 0.000000 -0.000000
rhumerus -48.883701 -12.911867 -62.867372
rradius 13.478717
rwrist 22.613456
rhand -28.856200 -18.800500
rfingers 7.125020
rthumb -2.212790 -48.768800
lclavicle 0.000000 -0.000000
lhumerus -17.688542 -19.295164 89.250724
lradius 51.543672
lwrist 21.063719
lhand -19.668800 -28.799300
lfingers 7.125020
lthumb 6.659510 1.076010
rfemur -34.797140 -6.600356 24.900216
rtibia 39.648626
rfoot 3.427113 10.111944
rtoes -20.766800
lfemur 25.440025 9.723657 -18.358417
ltibia 10.402888
lfoot 21.078131 6.817221
ltoes -22.051700
201
root -2.700876 0.808437 79.828021 4.772694 4.272000 1.650072
lowerback -5.395940 -4.316518 -5.217460
upperback -2.040148 -5.550807 3.347118
thorax 1.673529 -2.784177 5.995573
lowerneck -22.734596 -0.752283 -11.769478
upperneck 28.546148 -0.026749 10.646491
head 13.441817 0.168161 6.301473
rclavicle 0.000000 -0.000000
rhumerus -48.270727 -17.087582 -59.025649
rradius 13.106132
rwrist 26.441942
rhand -28.856200 -18.800500
rfingers 7.125020
rthumb -2.212790 -48.768800
lclavicle 0.000000 -0.000000
lhumerus -20.812912 -19.809647 90.934528
lradius 51.150484
lwrist 21.250115
lhand -19.668800 -28.799300
lfingers 7.125020
lthumb 6.659510 1.076010
rfemur -33.549026 -6.497194 25.907564
rtibia 40.973805
rfoot 1.285440 10.966855
rtoes -20.766800
lfemur 20.785056 9.767571 -16.458126
ltibia 19.851871
lfoot 27.822112 14.361052
ltoes -22.051700
202
root -2.764736 0.934395 80.255775 4.855435 4.550961 0.444750
lowerback -5.061341 -4.124962 -4.153704
upperback -2.102475 -5.381315 3.778376
thorax 1.351746 -2.685588 5.890145
lowerneck -22.550019 -1.055939 -11.989595
upperneck 28.208655 -0.516620 11.048891
head 13.338771 -0.014513 6.397263
rclavicle 0.000000 -0.000000
rhumerus -47.572981 -19.644610 -56.935399
rradius 13.488568
rwrist 27.673855
rhand -28.856200 -18.800500
rfingers 7.125020
rthumb -2.212790 -48.768800
lclavicle 0.000000 -0.000000
lhumerus -23.491627 -20.490285 92.701105
lradius 50.008634
lwrist 20.873588
lhand -19.668800 -28.799300
lfingers 7.125020
lthumb 6.659510 1.076010
rfemur -31.842002 -6.241993 26.724393
rtibia 41.010517
rfoot -1.903994 11.610294
rtoes -20.766800
lfemur 14.373264 9.580568 -14.519911
ltibia 31.363960
lfoot 32.551249 22.545330
ltoes -22.051700
203
root -2.826113 1.065683 80.649793 4.891083 4.936155 -0.673572
lowerback -4.741517 -3.931639 -3.217290
upperback -2.178056 -5.186349 4.201542
thorax 1.034376 -2.578403 5.842245
lowerneck -22.442996 -1.498092 -12.297252
upperneck 27.654254 -1.156050 11.486709
head 13.193063 -0.263392 6.485757
rclavicle 0.000000 -0.000000
rhumerus -46.510586 -19.758561 -57.226504
rradius 14.559285
rwrist 25.512389
rhand -28.856200 -18.800500
rfingers 7.125020
rthumb -2.212790 -48.768800
lclavicle 0.000000 -0.000000
lhumerus -25.387568 -21.182349 94.386927
lradius 48.254373
lwrist 19.997929
lhand -19.668800 -28.799300
lfingers 7.125020
lthumb 6.659510 1.076010
rfemur -29.748177 -5.768189 27.277904
rtibia 39.591681
rfoot -4.907867 11.676923
rtoes -20.766800
lfemur 7.621994 9.098166 -12.943405
ltibia 42.187185
lfoot 34.156196 29.553062
ltoes -22.051700
204
root -2.881647 1.192639 81.016035 4.932997 5.168570 -1.399718
lowerback -4.639239 -3.634251 -2.649942
upperback -2.159675 -4.820073 4.403046
thorax 0.924283 -2.392635 5.770882
lowerneck -22.317228 -1.977523 -12.487939
upperneck 27.153154 -1.860533 11.805783
head 13.077724 -0.546727 6.495836
rclavicle 0.000000 -0.000000
rhumerus -45.248004 -18.919348 -58.679289
rradius 15.396298
rwrist 22.633710
rhand -28.856200 -18.800500
rfingers 7.125020
rthumb -2.212790 -48.768800
lclavicle 0.000000 -0.000000
lhumerus -26.463211 -22.118343 95.886004
lradius 46.035046
lwrist 19.225885
lhand -19.668800 -28.799300
lfingers 7.125020
lthumb 6.659510 1.076010
rfemur -27.317326 -5.379312 27.649147
rtibia 37.265668
rfoot -6.916978 11.530794
rtoes -20.766800
lfemur 2.098330 8.744584 -12.185375
ltibia 49.658927
lfoot 34.179697 35.228873
ltoes -22.051700
205
root -2.929790 1.307675 81.364314 5.026810 5.165121 -1.759233
lowerback -4.759914 -3.217780 -2.419544
upperback -2.047015 -4.270665 4.379942
thorax 1.023309 -2.120961 5.655469
lowerneck -22.189290 -2.468384 -12.519078
upperneck 26.832291 -2.620593 12.003642
head 13.040387 -0.856128 6.428431
rclavicle 0.000000 -0.000000
rhumerus -43.899794 -17.626629 -60.817578
rradius 15.891320
rwrist 19.678610
rhand -28.856200 -18.800500
rfingers 7.125020
rthumb -2.212790 -48.768800
lclavicle 0.000000 -0.000000
lhumerus -26.814946 -23.006625 97.115557
lradius 43.282438
lwrist 18.308664
lhand -19.668800 -28.799300
lfingers 7.125020
lthumb 6.659510 1.076010
rfemur -24.667997 -5.047931 27.843175
rtibia 34.336980
rfoot -8.212511 11.261811
rtoes -20.766800
lfemur -2.503894 8.664017 -12.203338
ltibia 54.601567
lfoot 32.775243 39.589744
ltoes -22.051700
